HIERARCHY
ROOT Hips
{
     OFFSET 14.74250 94.73400 -33.15170
     CHANNELS 6 Xposition Yposition Zposition Zrotation Xrotation Yrotation
     JOINT Spine
     {
          OFFSET 0.00000 11.89050 0.00000
          CHANNELS 3 Zrotation Xrotation Yrotation
          JOINT Spine1
          {
               OFFSET -0.00000 25.65740 0.12766
               CHANNELS 3 Zrotation Xrotation Yrotation
               JOINT HEad
               {
                    OFFSET -0.00000 8.73416 0.01134
                    CHANNELS 3 Zrotation Xrotation Yrotation
                    End Site
                    {
                         OFFSET -0.29000 12.77420 2.51395
                    }
               }
               JOINT LeftShoulder1
               {
                    OFFSET 8.99000 -0.36225 -0.22000
                    CHANNELS 3 Zrotation Xrotation Yrotation
                    JOINT LeftArm
                    {
                         OFFSET 10.28270 -0.00338 0.32212
                         CHANNELS 3 Zrotation Xrotation Yrotation
                         JOINT LeftForeArm
                         {
                              OFFSET 32.76690 0.09914 -1.42434
                              CHANNELS 3 Zrotation Xrotation Yrotation
                              JOINT LeftHand
                              {
                                   OFFSET 27.56430 0.08536 1.02216
                                   CHANNELS 3 Zrotation Xrotation Yrotation
                                   End Site
                                   {
                                        OFFSET 16.74430 -0.60000 1.50291
                                   }
                              }
                         }
                    }
               }
               JOINT RightShoulder
               {
                    OFFSET -8.99000 -0.36225 -0.22000
                    CHANNELS 3 Zrotation Xrotation Yrotation
                    JOINT RightArm
                    {
                         OFFSET -10.28270 -0.00338 0.32212
                         CHANNELS 3 Zrotation Xrotation Yrotation
                         JOINT RightForeArm
                         {
                              OFFSET -32.89710 0.09914 -1.42434
                              CHANNELS 3 Zrotation Xrotation Yrotation
                              JOINT RightHand
                              {
                                   OFFSET -27.49210 0.08536 1.02216
                                   CHANNELS 3 Zrotation Xrotation Yrotation
                                   End Site
                                   {
                                        OFFSET -16.63120 -0.60000 1.50291
                                   }
                              }
                         }
                    }
               }
          }
     }
     JOINT LeftUpLeg
     {
          OFFSET 8.94580 -8.66707 0.10165
          CHANNELS 3 Zrotation Xrotation Yrotation
          JOINT LeftLeg
          {
               OFFSET -0.00000 -44.42270 1.37270
               CHANNELS 3 Zrotation Xrotation Yrotation
               JOINT LeftFoot
               {
                    OFFSET -0.25355 -42.09240 -1.46059
                    CHANNELS 3 Zrotation Xrotation Yrotation
                    JOINT LeftToes
                    {
                         OFFSET -0.04000 -4.41509 8.49910
                         CHANNELS 3 Zrotation Xrotation Yrotation
                         End Site
                         {
                              OFFSET 0.08000 -0.04745 9.77979
                         }
                    }
               }
          }
     }
     JOINT RightUpLeg
     {
          OFFSET -8.94580 -8.66707 0.10165
          CHANNELS 3 Zrotation Xrotation Yrotation
          JOINT RightLeg
          {
               OFFSET 0.00000 -44.42270 1.37270
               CHANNELS 3 Zrotation Xrotation Yrotation
               JOINT RightFoot
               {
                    OFFSET 0.25355 -42.09240 -1.46059
                    CHANNELS 3 Zrotation Xrotation Yrotation
                    JOINT RightToes
                    {
                         OFFSET 0.04000 -4.41509 8.49910
                         CHANNELS 3 Zrotation Xrotation Yrotation
                         End Site
                         {
                              OFFSET -0.08000 -0.13745 9.77979
                         }
                    }
               }
          }
     }
}
MOTION
Frames: 8
Frame Time: 0.01667
14.74250 94.73400 -33.15170 -9.46692 -12.89170 -41.01430 -1.32639 12.37890 -0.59898 -0.43154 24.65720 -1.35071 -13.22270 7.43236 10.41140 -0.00000 0.00000 -0.00000 -136.52901 -55.12060 -108.81200 -60.97030 60.62070 -65.90240 12.45870 7.79540 -16.15870 12.39880 0.60198 1.23255 89.68370 -3.13003 74.58620 27.16320 34.43640 89.28640 26.90390 12.49610 6.40488 22.58410 -2.01838 -20.92690 -29.82380 8.43653 72.88210 -3.76295 11.46880 0.54117 5.07968 -21.70770 -57.70080 -24.30080 5.20760 11.55930 38.79960 12.18960 -31.85260 -32.47840 0.50762 2.26758 6.65945 -39.08020 14.57860 
14.99900 94.76500 -32.78160 -9.47478 -13.07190 -41.46460 -1.81543 12.47340 -0.56110 -0.44697 24.81410 -1.46144 -13.32320 6.83104 10.91110 -0.00000 0.00000 -0.00000 -136.51900 -55.21030 -108.65400 -60.80110 60.72480 -66.07770 12.46060 7.79025 -16.20430 12.34170 0.58102 1.10520 89.75710 -2.98747 74.55890 27.43740 34.52540 89.25110 26.86130 12.46850 6.30774 22.88870 -2.64608 -20.42140 -31.33120 9.49194 74.11690 -2.87090 13.08500 0.42332 4.40150 -23.77740 -58.84850 -24.83910 5.35799 11.94520 38.76140 11.91050 -31.55550 -32.66490 0.96708 2.41920 6.91000 -39.84650 14.81530 
15.26060 94.81690 -32.36660 -9.38608 -13.26670 -41.98690 -2.38437 12.55430 -0.54412 -0.52118 24.93740 -1.62839 -13.39840 5.75116 11.93720 -0.00000 0.00000 -0.00000 -136.55600 -55.40520 -108.59100 -60.41200 60.81960 -66.46850 12.48410 7.77301 -16.32750 12.19730 0.58024 1.12479 89.88230 -2.89268 74.56090 27.70760 34.62320 89.20480 26.85790 12.44980 6.23177 23.09190 -3.21559 -19.42560 -32.53240 10.68500 74.72250 -1.96244 14.87490 0.27928 3.66054 -25.85320 -60.01080 -25.51470 5.48297 12.31290 38.69870 11.55410 -31.19780 -32.89070 1.49734 2.59703 7.20355 -40.65880 15.15400 
15.54040 94.78220 -31.83260 -9.23985 -13.44420 -42.57650 -2.96431 12.62530 -0.55256 -0.62656 25.03390 -1.80603 -13.49160 4.44673 13.30260 -0.00000 0.00000 -0.00000 -136.43600 -55.63690 -108.42200 -59.74440 60.83900 -67.16380 12.50730 7.75229 -16.48350 11.98680 0.58453 1.19025 90.04430 -2.80158 74.59960 27.79690 34.72240 89.21480 26.88650 12.46210 6.27122 23.16930 -3.96923 -18.14570 -33.48410 12.41640 74.86970 -1.44756 16.38180 0.18837 2.94480 -27.69040 -61.16140 -26.26420 5.33442 12.52620 38.66300 11.72560 -30.89690 -32.96010 1.81114 2.69751 7.51023 -41.45720 15.52720 
15.83780 94.71900 -31.21530 -9.09350 -13.55770 -43.25350 -3.44662 12.68490 -0.56364 -0.72999 25.10890 -1.94429 -13.66250 3.35544 14.61330 -0.00000 0.00000 -0.00000 -136.15401 -55.83400 -108.12100 -59.02420 60.78650 -67.96430 12.51360 7.73724 -16.61490 11.78780 0.57763 1.17935 90.18670 -2.65939 74.66190 27.53850 34.80940 89.36770 26.91880 12.52400 6.51398 23.29940 -4.76837 -16.87170 -34.18710 14.19110 74.81530 -1.24436 17.42180 0.15092 2.31861 -29.14220 -62.34550 -27.00130 5.06297 12.62410 38.59410 12.07980 -30.53180 -32.96810 2.09208 2.78277 7.81129 -42.25210 15.85170 
16.15810 94.61650 -30.52570 -9.00064 -13.57940 -44.02540 -3.78519 12.73980 -0.57424 -0.82525 25.17950 -2.02618 -13.96500 2.71878 15.56570 -0.00000 0.00000 -0.00000 -135.86700 -55.97060 -107.82200 -58.51690 60.71170 -68.60030 12.47260 7.73640 -16.69480 11.66980 0.55574 1.05123 90.25440 -2.41516 74.71190 26.89270 34.84840 89.71680 26.94180 12.63110 6.94562 23.59250 -5.57704 -15.74160 -34.65190 15.83600 74.73610 -1.37901 17.86680 0.18292 1.86150 -30.07080 -63.48220 -27.67710 4.69130 12.67220 38.53110 12.52820 -30.16410 -32.97700 2.39277 2.87406 8.14005 -43.16030 16.13450 
16.50610 94.46020 -29.77060 -8.99134 -13.50130 -44.89060 -3.96214 12.79800 -0.59593 -0.91704 25.26310 -2.07066 -14.37530 2.41194 16.13420 -0.00000 0.00000 -0.00000 -135.75301 -56.06430 -107.67500 -58.39120 60.65420 -68.87610 12.34280 7.75609 -16.73710 11.63430 0.52493 0.84652 90.25290 -2.04832 74.69860 25.94780 34.80780 90.26010 26.95820 12.75860 7.46365 24.14320 -6.06308 -14.95140 -34.74140 16.62350 74.66150 -1.53618 17.85980 0.21773 1.66784 -30.35810 -64.35110 -28.27310 4.22751 12.73430 38.51400 13.02410 -29.86530 -33.04580 2.72717 2.98146 8.53778 -44.26110 16.43720 
16.88790 94.24430 -28.94650 -9.05725 -13.32440 -45.82810 -3.95918 12.85940 -0.64804 -1.00349 25.36090 -2.11292 -14.80380 2.17761 16.48150 -0.00000 0.00000 -0.00000 -135.81799 -56.13670 -107.69700 -58.69810 60.59490 -68.72040 12.12220 7.79417 -16.76580 11.61820 0.49095 0.61633 90.24170 -1.57185 74.57250 24.87420 34.69280 90.92030 26.95330 12.88300 7.97739 24.92690 -6.24864 -14.63880 -34.47660 16.52400 74.66500 -1.66226 17.48090 0.24248 1.80823 -29.93790 -64.72540 -28.79710 3.66924 12.80900 38.55110 13.58070 -29.61440 -33.16850 3.04616 3.09009 8.97233 -45.43840 16.75010 
